<?xml version="1.0" encoding="UTF-8"?><svg xmlns="http://www.w3.org/2000/svg" width="78" height="14" viewBox="0 0 78 14"><g id="a"/><g id="b"><g id="c"><rect id="d" width="78" height="14" fill="none"/><g id="e"><g><circle cx="45" cy="7" r="6.5" fill="#fff"/><path d="M45,1c3.31,0,6,2.69,6,6s-2.69,6-6,6-6-2.69-6-6,2.69-6,6-6m0-1c-3.87,0-7,3.13-7,7s3.13,7,7,7,7-3.13,7-7-3.13-7-7-7h0Z" fill="#ddd"/></g><circle cx="45" cy="7" r="3" fill="#009ee0"/></g><g id="f"><g><circle cx="20" cy="7" r="6.5" fill="#fff"/><path d="M20,1c3.31,0,6,2.69,6,6s-2.69,6-6,6-6-2.69-6-6,2.69-6,6-6m0-1c-3.87,0-7,3.13-7,7s3.13,7,7,7,7-3.13,7-7S23.87,0,20,0h0Z" fill="#ddd"/></g></g><g id="g" opacity=".4"><g><circle cx="71" cy="7" r="6.5" fill="#fff"/><path d="M71,1c3.31,0,6,2.69,6,6s-2.69,6-6,6-6-2.69-6-6,2.69-6,6-6m0-1c-3.87,0-7,3.13-7,7s3.13,7,7,7,7-3.13,7-7-3.13-7-7-7h0Z" fill="#ddd"/></g></g></g></g></svg>