<svg xmlns="http://www.w3.org/2000/svg" xmlns:xlink="http://www.w3.org/1999/xlink" viewBox="0 0 16.59 16"><defs><style>.cls-1,.cls-13,.cls-7{fill:none;}.cls-2{clip-path:url(#clip-path);}.cls-3{clip-path:url(#clip-path-2);}.cls-4{opacity:0.2;}.cls-5{clip-path:url(#clip-path-5);}.cls-6{fill:#e7c146;}.cls-7{stroke:#e7c146;}.cls-13,.cls-7{stroke-miterlimit:10;}.cls-8{opacity:0.8;}.cls-9{clip-path:url(#clip-path-6);}.cls-10{fill:#fff;}.cls-11{fill:#777;}.cls-12{clip-path:url(#clip-path-7);}.cls-13{stroke:#53a93f;}.cls-14{fill:#53a93f;}</style><clipPath id="clip-path" transform="translate(0 -1)"><path class="cls-1" d="M0,1V17H16V1ZM5,12h6V6L8,9V4l4-4h1l4,4V9L14,6v9H5Z"/></clipPath><clipPath id="clip-path-2" transform="translate(0 -1)"><rect class="cls-1" y="2" width="16" height="16"/></clipPath><clipPath id="clip-path-5" transform="translate(0 -1)"><rect class="cls-1" x="0.5" y="2.5" width="7" height="2.5"/></clipPath><clipPath id="clip-path-6" transform="translate(0 -1)"><rect class="cls-1" y="3" width="16" height="14"/></clipPath><clipPath id="clip-path-7" transform="translate(0 -1)"><polygon class="cls-1" points="16 0 16 11 16 15 4 15 4 12 9.02 12 9.02 11 9.02 0 16 0"/></clipPath></defs><g id="Calque_2" data-name="Calque 2"><g id="Draw"><g id="Repertoire-Parent-Vers-Dossier-Fleche_16_1"><g id="Masque"><rect class="cls-1" width="16" height="16"/></g><g class="cls-2"><g class="cls-3"><g class="cls-3"><g class="cls-3"><g class="cls-4"><g class="cls-5"><path class="cls-6" d="M.5,5V3.1a1.09,1.09,0,0,1,.09-.23.9.9,0,0,1,.15-.19.59.59,0,0,1,.19-.13.54.54,0,0,1,.21,0h4.8a.51.51,0,0,1,.38.18C6.43,2.8,7.5,5,7.5,5" transform="translate(0 -1)"/></g></g><path class="cls-7" d="M.5,5V3.1a1.09,1.09,0,0,1,.09-.23.9.9,0,0,1,.15-.19.59.59,0,0,1,.19-.13.54.54,0,0,1,.21,0h4.8a.51.51,0,0,1,.38.18C6.43,2.8,7.5,5,7.5,5" transform="translate(0 -1)"/><g class="cls-8"><g class="cls-9"><path class="cls-10" d="M16,17H0V6H8l.48-2.4a.75.75,0,0,1,.2-.42C8.79,3.06,8.86,3,9,3h6.36a.54.54,0,0,1,.21,0,.59.59,0,0,1,.19.13.9.9,0,0,1,.15.19A1.09,1.09,0,0,1,16,3.6V17Z" transform="translate(0 -1)"/></g></g><path class="cls-11" d="M15,4V16H1V7H8.82L9,6.2,9.42,4H15m.36-1H9c-.14,0-.21.06-.32.18a.75.75,0,0,0-.2.42L8,6H0V17H16V3.6a1.09,1.09,0,0,0-.09-.23.9.9,0,0,0-.15-.19.59.59,0,0,0-.19-.13.54.54,0,0,0-.21,0" transform="translate(0 -1)"/></g></g></g></g><g class="cls-12"><polyline class="cls-13" points="12.5 1.08 12.5 12.5 6 12.5"/><polygon class="cls-14" points="8.41 4.4 9.14 5.08 12.5 1.47 15.86 5.08 16.59 4.4 12.5 0 8.41 4.4"/></g></g></g></g></svg>