<?xml version="1.0" encoding="UTF-8"?><svg xmlns="http://www.w3.org/2000/svg" width="72" height="50" viewBox="0 0 72 50"><g id="a"/><g id="b"><g id="c"><rect id="d" width="72" height="50" fill="none"/><g id="e"><g opacity=".3"><rect x="2" y="2" width="68" height="46" rx="3" ry="3" fill="#00b7ff"/></g><path d="M67,3c1.1,0,2,.9,2,2V45c0,1.1-.9,2-2,2H5c-1.1,0-2-.9-2-2V5c0-1.1,.9-2,2-2h62m0-1H5c-1.66,0-3,1.34-3,3V45c0,1.66,1.34,3,3,3h62c1.66,0,3-1.34,3-3V5c0-1.66-1.34-3-3-3h0Z" fill="#00b7ff"/><polyline points="32.65 25 41 35 60 14" fill="none" stroke="#53a93f" stroke-linecap="round" stroke-linejoin="round" stroke-width="2"/></g></g></g></svg>