<svg xmlns="http://www.w3.org/2000/svg" viewBox="0 0 16 16"><defs><style>.cls-1,.cls-4{fill:none;}.cls-2{opacity:0.2;}.cls-3{fill:#e7c146;}.cls-4{stroke:#777;stroke-miterlimit:10;}</style></defs><g id="Calque_2" data-name="Calque 2"><g id="Draw"><g id="Importer_Download_16_1"><rect id="Masque" class="cls-1" width="16" height="16"/><g class="cls-2"><rect class="cls-3" x="5" y="1" width="6" height="3"/><rect class="cls-3" x="5" y="5" width="6" height="4"/><polygon class="cls-3" points="14 8 2 8 8 14 14 8"/></g><path class="cls-3" d="M10,2V3H6V2h4m1-1H5V4h6V1Z"/><path class="cls-3" d="M10,6V8H6V6h4m1-1H5V9h6V5Z"/><path class="cls-3" d="M11.59,9,8,12.59,4.41,9h7.18M14,8H2l6,6,6-6Z"/><polyline class="cls-4" points="1.5 12 1.5 15.5 14.5 15.5 14.5 12"/></g></g></g></svg>