<svg xmlns="http://www.w3.org/2000/svg" viewBox="0 0 16 16"><defs><style>.cls-1{fill:none;}.cls-2{opacity:0.8;}.cls-3{fill:#fff;}.cls-4{fill:#777;}.cls-5{fill:#e55348;}</style></defs><g id="Calque_2" data-name="Calque 2"><g id="Draw"><g id="Accueil-Maison_16_1"><rect id="Masque" class="cls-1" width="16" height="16"/><g class="cls-2"><polygon class="cls-3" points="14 15 14 6.5 8 1.5 2 6.5 2 15 14 15"/></g><path class="cls-4" d="M8,2.8,13,7v7H3V7L8,2.8M8,1.5l-6,5V15H14V6.5l-6-5Z"/><rect class="cls-4" x="7" y="10" width="2" height="5"/><polygon class="cls-4" points="13 4.8 13 2 11 2 11 3 13 4.8"/><polygon class="cls-5" points="14 8 16 8 8 1 0 8 2 8 8 3 14 8"/></g></g></g></svg>