<svg xmlns="http://www.w3.org/2000/svg" xmlns:xlink="http://www.w3.org/1999/xlink" viewBox="0 0 16 12"><defs><style>.cls-1{fill:none;}.cls-2{clip-path:url(#clip-path);}.cls-3{clip-path:url(#clip-path-2);}.cls-4{opacity:0.8;}.cls-5{clip-path:url(#clip-path-5);}.cls-6{fill:#fff;}.cls-7{opacity:0.3;}.cls-8{clip-path:url(#clip-path-6);}.cls-9{fill:#777;}.cls-10{clip-path:url(#clip-path-7);}.cls-11{fill:#e7c146;}</style><clipPath id="clip-path" transform="translate(0 -2)"><path class="cls-1" d="M0,0V16H16V0ZM15,13H7V6h8Z"/></clipPath><clipPath id="clip-path-2" transform="translate(0 -2)"><rect class="cls-1" width="16" height="16"/></clipPath><clipPath id="clip-path-5" transform="translate(0 -2)"><rect class="cls-1" y="2" width="16" height="12"/></clipPath><clipPath id="clip-path-6" transform="translate(0 -2)"><rect class="cls-1" y="2" width="16" height="4"/></clipPath><clipPath id="clip-path-7" transform="translate(0 -2)"><rect class="cls-1" x="8" y="6.33" width="7" height="6.67"/></clipPath></defs><g id="Calque_2" data-name="Calque 2"><g id="Draw"><g id="Modele-Fenetre_16_1"><g class="cls-2"><g class="cls-3"><g class="cls-3"><g class="cls-3"><g class="cls-4"><g class="cls-5"><rect class="cls-6" width="16" height="12"/></g></g><g class="cls-7"><g class="cls-8"><rect class="cls-9" width="16" height="4"/></g></g></g><path class="cls-9" d="M1,3H15V13H1ZM0,14H16V2H0Z" transform="translate(0 -2)"/><rect class="cls-9" x="11" y="2" width="1" height="1"/><rect class="cls-9" x="13" y="2" width="1" height="1"/><rect class="cls-9" x="9" y="2" width="1" height="1"/></g></g></g><g class="cls-10"><polygon class="cls-11" points="12.31 4.99 11.5 8.65 10.69 4.99 8 4.99 8 11 9.4 11 9.4 6.5 10.74 11 12.2 11 13.6 6.5 13.6 11 15 11 15 4.99 12.31 4.99"/></g></g></g></g></svg>