<?xml version="1.0" encoding="UTF-8"?><svg xmlns="http://www.w3.org/2000/svg" width="120" height="24" xmlns:xlink="http://www.w3.org/1999/xlink" viewBox="0 0 120 24"><defs><style>.k{fill:#ddd;}.l{clip-path:url(#h);}.m{opacity:0;}.n{opacity:.4;}.o{fill:#009ee0;}.p{fill:none;}.q{fill:#b2e9ff;}.r{fill:#f7f7f7;}.s{fill:#d9f4ff;}</style><clipPath id="h"><rect x="72" width="24" height="24" fill="none"/></clipPath></defs><g id="a"/><g id="b"><g id="c"><g id="d" opacity="0"><path d="M3,23.5c-1.38,0-2.5-1.12-2.5-2.5V.5H23.5V21c0,1.38-1.12,2.5-2.5,2.5H3Z" fill="#f7f7f7"/><path d="M23,1V21c0,1.1-.9,2-2,2H3c-1.1,0-2-.9-2-2V1H23m1-1H0V21c0,1.66,1.34,3,3,3H21c1.66,0,3-1.34,3-3V0h0Z" fill="#ddd"/></g><g id="e"><path d="M27,23.5c-1.38,0-2.5-1.12-2.5-2.5V.5h23V21c0,1.38-1.12,2.5-2.5,2.5H27Z" fill="#b2e9ff"/><path d="M47,1V21c0,1.1-.9,2-2,2H27c-1.1,0-2-.9-2-2V1h22m1-1H24V21c0,1.66,1.34,3,3,3h18c1.66,0,3-1.34,3-3V0h0Z" fill="#009ee0"/></g><g id="f" opacity=".4"><path d="M51,23.5c-1.38,0-2.5-1.12-2.5-2.5V.5h23V21c0,1.38-1.12,2.5-2.5,2.5h-18Z" fill="#f7f7f7"/><path d="M71,1V21c0,1.1-.9,2-2,2h-18c-1.1,0-2-.9-2-2V1h22m1-1h-24V21c0,1.66,1.34,3,3,3h18c1.66,0,3-1.34,3-3V0h0Z" fill="#ddd"/></g><g id="g"><g clip-path="#h"><g id="i"><path d="M75,23.5c-1.38,0-2.5-1.12-2.5-2.5V-.5h23V21c0,1.38-1.12,2.5-2.5,2.5h-18Z" fill="#f7f7f7"/><path d="M95,0V21c0,1.1-.9,2-2,2h-18c-1.1,0-2-.9-2-2V0h22m1-1h-24V21c0,1.66,1.34,3,3,3h18c1.66,0,3-1.34,3-3V-1h0Z" fill="#009ee0"/></g></g></g><g id="j"><path d="M120,0h-24V21c0,1.66,1.34,3,3,3h18c1.66,0,3-1.34,3-3V0Z" fill="#d9f4ff"/></g></g></g></svg>